<svg xmlns="http://www.w3.org/2000/svg" viewBox="0 0 1187.2 241.7" xmlns:xlink="http://www.w3.org/1999/xlink">
	<a xlink:href="https://codecrashers.nl/" target="__blank">
		<polygon fill="rgb(71,197,174)" points="85.6,0 0,113.6 53.5,182.1 83.2,142.5 60.2,113 145.4,0"/>
		<polygon fill="#212529" points="53.7,241.7 228.4,9.9 220.6,0 205.7,0 31.2,231.5 39.2,241.7"/>
		<polygon fill="rgb(71,197,174)" points="100.1,241.7 84.2,221.4 114,181.8 160.8,241.7"/>
		<polygon fill="rgb(71,197,174)" points="221.9,241.7 282.6,241.7 204.4,141.6 266.7,58.9 236.1,19.8 144,142"/>
		<path fill="#212529" d="M387.9,160.7c-2.1,3.5-6.6,9.4-12.9,9.4c-9.4,0-14.1-10.8-14.1-32c0-21.3,4.7-32.1,14.1-32.1 c5.8,0,9.4,4.7,11.4,8.7l0.7,1.4l9.5-5.6l-0.7-1.3c-5-9.1-12-13.7-20.9-13.7c-16.4,0-25.5,15.1-25.5,42.7 c0,27.4,9.1,42.5,25.5,42.5c11.2,0,18.1-7.5,22-13.8l0.8-1.2l-9.1-6.3L387.9,160.7z"/>
		<path fill="#212529" d="M445.3,113c-5.6,0-23.7,2.4-23.7,33.9c0,31.3,18.1,33.8,23.7,33.8c22,0,23.7-25.9,23.7-33.8 C469,115.4,450.9,113,445.3,113z M445.3,170.1c-10.7,0-12.3-14.5-12.3-23.2c0-10.6,2.1-23.3,12.3-23.3c10.2,0,12.3,12.7,12.3,23.3 C457.6,155.5,456,170.1,445.3,170.1z"/>
		<path fill="#212529" d="M516.5,114.1h-22.4v10.2h6.5v45.1h-6.5v10.2h22.4c25.2,0,27.3-15.9,27.3-33.5 C543.8,123,536.1,114.1,516.5,114.1z M518.6,169.4h-7v-45.1h6.8c8.6,0,14,3.8,14,22.6C532.4,165.6,527.1,169.4,518.6,169.4z"/>
		<polygon fill="#212529" points="570.7,179.6 612.7,179.6 612.7,169.4 581.7,169.4 581.7,150.2 607.2,150.2 607.2,140 581.7,140 581.7,124.3 612.7,124.3 612.7,114.1 570.7,114.1"/>
		<path fill="#212529" d="M675.9,160.7c-2.1,3.5-6.6,9.4-12.9,9.4c-9.4,0-14.1-10.8-14.1-32c0-21.3,4.7-32.1,14.1-32.1 c5.8,0,9.4,4.7,11.4,8.7l0.7,1.4l9.5-5.6l-0.7-1.3c-5-9.1-12-13.7-20.9-13.7c-16.4,0-25.5,15.1-25.5,42.7 c0,27.4,9.1,42.5,25.5,42.5c11.2,0,18.1-7.5,22-13.8l0.8-1.2l-9.1-6.3L675.9,160.7z"/>
		<path fill="#212529" d="M756.6,132.6c0-11.6-7.6-18.5-20.2-18.5h-22.7v65.5h11v-26.8h9.3l16.3,28.9l9.6-5.8l-15.2-25 C751.7,147.9,756.6,140.5,756.6,132.6z M724.7,124.3h11.5c5.8,0,9.1,3,9.1,8.3c0,6.2-4.4,10-11.5,10h-9.1V124.3z"/>
		<path fill="#212529" d="M799.1,114.1l-20.5,63.6l10.7,3.9l6-19h20l5.9,19l10.8-3.9l-20.5-63.6H799.1z M812.2,152.3h-13.7l6.9-22.3 L812.2,152.3z"/>
		<path fill="#212529" d="M889.8,144.6l-13.4-5.9c-5.1-2.3-7.5-3.6-7.5-8.4c0-4.7,4.4-6.8,8.7-6.8c5.4,0,8.6,2.9,10.1,9.3l0.4,1.5 l10.6-3.1l-0.4-1.4c-2.9-11-10-16.8-20.5-16.8c-11.7,0-19.9,7.4-19.9,17.9c0,11.7,7.9,15,16.3,18.4c0.8,0.3,1.6,0.6,2.4,1 c0.5,0.2,1,0.4,1.5,0.6c5.4,2.2,10.2,4.1,10.2,10.1c0,6.7-5.3,9.1-10.3,9.1c-6.7,0-10.5-3.9-12.2-12.1l-0.3-1.6l-10,3.2l0.2,1.3 c2.1,12.4,10.5,19.8,22.4,19.8c12.9,0,21.3-7.9,21.3-20.1C899.2,153.5,896,148,889.8,144.6z"/>
		<polygon fill="#212529" points="960.2,140 938.4,140 938.4,114.1 927.4,114.1 927.4,179.6 938.4,179.6 938.4,150.2 960.2,150.2 960.2,179.6 971.2,179.6 971.2,114.1 960.2,114.1"/>
		<polygon fill="#212529" points="1002.6,179.6 1044.6,179.6 1044.6,169.4 1013.7,169.4 1013.7,150.2 1039.2,150.2 1039.2,140 1013.7,140 1013.7,124.3 1044.6,124.3 1044.6,114.1 1002.6,114.1"/>
		<path fill="#212529" d="M1116.6,132.6c0-11.6-7.6-18.5-20.2-18.5h-22.7v65.5h11v-26.8h9.3l16.3,28.9l9.6-5.8l-15.2-25 C1111.7,147.9,1116.6,140.5,1116.6,132.6z M1084.7,124.3h11.5c5.8,0,9.1,3,9.1,8.3c0,6.2-4.4,10-11.5,10h-9.1V124.3z"/>
		<path fill="#212529" d="M1177.8,144.6l-13.4-5.9c-5.1-2.3-7.5-3.6-7.5-8.4c0-4.7,4.4-6.8,8.7-6.8c5.4,0,8.6,2.9,10.1,9.3l0.4,1.5 l10.6-3.1l-0.4-1.4c-2.9-11-10-16.8-20.5-16.8c-11.7,0-19.9,7.4-19.9,17.9c0,11.7,7.9,15,16.3,18.4c0.8,0.3,1.6,0.6,2.4,1 c0.5,0.2,1,0.4,1.5,0.6c5.4,2.2,10.2,4.1,10.2,10.1c0,6.7-5.3,9.1-10.3,9.1c-6.7,0-10.5-3.9-12.2-12.1l-0.3-1.6l-10,3.2l0.2,1.3 c2.1,12.4,10.5,19.8,22.4,19.8c12.9,0,21.3-7.9,21.3-20.1C1187.2,153.5,1183.9,148,1177.8,144.6z"/>
	</a>
</svg>